<svg xmlns="http://www.w3.org/2000/svg" viewBox="0 0 420 360" width="100%" height="100%" fill="none">
  <defs>
    <style>
      @keyframes waveWholeArm {
        0%, 100% { transform: rotate(0deg); }
        25% { transform: rotate(15deg); }
        50% { transform: rotate(-6deg); }
        75% { transform: rotate(18deg); }
      }
      @keyframes naturalBlink {
        0%, 90%, 100% { transform: scaleY(1); }
        95% { transform: scaleY(0.1); }
      }
      .waving-arm-whole {
        animation: waveWholeArm 2s ease-in-out infinite;
        transform-origin: 270px 150px;
      }
      .blinking-eyes {
        animation: naturalBlink 4s ease-in-out infinite;
        transform-origin: 210px 92px;
      }
    </style>
  </defs>

  <!-- ── 1. SUELO GRIS FUERTE ── -->
  <ellipse cx="210" cy="335" rx="120" ry="14" fill="#475569" opacity="0.95" />
  <ellipse cx="210" cy="335" rx="100" ry="10" fill="#334155" />

  <!-- ── 2. BACKGROUND CIRCLE ── -->
  <circle cx="210" cy="175" r="128" fill="#131d33" stroke="#2563eb" stroke-width="3.5" />
  <circle cx="210" cy="175" r="121" fill="#16233d" />

  <!-- ── 3. CHARACTER BODY ── -->
  <g id="character-body">
    <rect x="178" y="230" width="26" height="85" rx="5" fill="#0f172a" />
    <rect x="216" y="230" width="26" height="85" rx="5" fill="#0f172a" />

    <rect x="168" y="308" width="40" height="18" rx="9" fill="#070c18" />
    <rect x="212" y="308" width="40" height="18" rx="9" fill="#070c18" />

    <!-- ── LEFT ARM ── -->
    <path d="M 160 148 C 130 156 102 185 92 218 L 118 228 C 126 202 145 180 168 172 Z" fill="#22345c" />
    <rect x="88" y="212" width="16" height="6" rx="3" fill="#182542" transform="rotate(25 88 212)" />

    <ellipse cx="94" cy="226" rx="18" ry="8" fill="#f3b18c" />
    <ellipse cx="60" cy="216" rx="5" ry="9" fill="#f3b18c" transform="rotate(-15 60 216)" />

    <!-- ── SOLID WHITE MINIATURE HOUSE ── -->
    <g id="house" transform="translate(56, 160)">
      <polygon points="-4,34 32,2 68,34" fill="#2563eb" />
      <polygon points="32,2 42,10 42,5 37,5" fill="#1e293b" />
      <line x1="0" y1="32" x2="32" y2="4" stroke="#60a5fa" stroke-width="2" stroke-linecap="round" />

      <rect x="0" y="34" width="64" height="48" rx="4" fill="#ffffff" stroke="#cbd5e1" stroke-width="2" />
      <rect x="0" y="34" width="64" height="5" fill="#e2e8f0" />

      <rect x="8" y="42" width="15" height="15" rx="2.5" fill="#38bdf8" stroke="#0284c7" stroke-width="1.5" />
      <line x1="15.5" y1="42" x2="15.5" y2="57" stroke="#ffffff" stroke-width="1.5" />
      <line x1="8" y1="49.5" x2="23" y2="49.5" stroke="#ffffff" stroke-width="1.5" />

      <rect x="41" y="42" width="15" height="15" rx="2.5" fill="#38bdf8" stroke="#0284c7" stroke-width="1.5" />
      <line x1="48.5" y1="42" x2="48.5" y2="57" stroke="#ffffff" stroke-width="1.5" />
      <line x1="41" y1="49.5" x2="56" y2="49.5" stroke="#ffffff" stroke-width="1.5" />

      <rect x="25" y="51" width="14" height="31" rx="2" fill="#0f172a" />
      <circle cx="35" cy="66" r="1.3" fill="#fbbf24" />
    </g>

    <path d="M 152 142 C 152 142, 268 142, 268 142 C 280 142, 288 152, 288 165 L 276 244 C 276 254, 264 262, 250 262 L 170 262 C 156 262, 144 254, 144 244 L 132 165 C 132 152, 140 142, 152 142 Z" fill="#22345c" />
    <path d="M 152 142 L 190 205 L 178 258" stroke="#182542" stroke-width="3" stroke-linecap="round" />
    <path d="M 268 142 L 230 205 L 242 258" stroke="#182542" stroke-width="3" stroke-linecap="round" />

    <polygon points="190,142 210,175 230,142 210,142" fill="#ffffff" />
    <polygon points="205,152 215,152 217,218 210,226 203,218" fill="#2563eb" />

    <rect x="202" y="120" width="16" height="24" rx="4" fill="#f3b18c" />
    <circle cx="210" cy="88" r="38" fill="#f3b18c" />

    <path d="M 172 88 C 168 54 186 40 210 40 C 234 40 252 54 248 88 C 242 74 230 64 210 64 C 190 64 178 74 172 88 Z" fill="#3b271d" />

    <g class="blinking-eyes">
      <circle cx="196" cy="84" r="4" fill="#3b271d" />
      <circle cx="198" cy="82" r="1.5" fill="#ffffff" />
      <circle cx="224" cy="84" r="4" fill="#3b271d" />
      <circle cx="226" cy="82" r="1.5" fill="#ffffff" />
    </g>

    <path d="M 194 98 Q 210 114 226 98 Z" fill="#ffffff" stroke="#3b271d" stroke-width="2.5" stroke-linejoin="round" />
    <path d="M 194 98 Q 210 114 226 98" stroke="#3b271d" stroke-width="2.5" fill="none" stroke-linecap="round" />

    <circle cx="188" cy="96" r="5" fill="#ea7b64" opacity="0.35" />
    <circle cx="232" cy="96" r="5" fill="#ea7b64" opacity="0.35" />

    <circle cx="270" cy="150" r="16" fill="#22345c" />
  </g>

  <!-- ── 4. RIGHT WAVING ARM & HAND (Unified group) ── -->
  <g class="waving-arm-whole">
    <path d="M 268 145 C 290 148 316 122 342 86 L 360 98 C 332 138 300 168 270 162 Z" fill="#22345c" />
    <rect x="336" y="82" width="20" height="6" rx="3" fill="#182542" transform="rotate(-35 336 82)" />

    <g id="hand" transform="translate(342, 48)">
      <circle cx="14" cy="20" r="13" fill="#f3b18c" />
      <ellipse cx="2" cy="24" rx="4.5" ry="7" fill="#f3b18c" transform="rotate(-30 2 24)" />
      <rect x="6" y="2" width="4.5" height="15" rx="2.2" fill="#f3b18c" />
      <rect x="12" y="-2" width="4.5" height="18" rx="2.2" fill="#f3b18c" />
      <rect x="18" y="1" width="4.5" height="16" rx="2.2" fill="#f3b18c" />
      <rect x="24" y="5" width="4" height="12" rx="2" fill="#f3b18c" />
    </g>
  </g>
</svg>
